<svg aria-hidden="true" style="position: absolute; width: 0; height: 0; overflow: hidden;" version="1.1" xmlns="http://www.w3.org/2000/svg" xmlns:xlink="http://www.w3.org/1999/xlink">
<defs>
<symbol id="icon-cafe" viewBox="0 0 32 32">
<path fill="#f8cc1d" style="fill: var(--color1, #f8cc1d)" d="M18.371 15.845c0 1.94-1.573 3.512-3.512 3.512s-3.512-1.573-3.512-3.512c0-1.94 1.573-3.512 3.512-3.512s3.512 1.573 3.512 3.512z"></path>
<path fill="#FFF" style="fill: var(--color2, #FFF)" d="M24.74 12.321c-0.25-1.178-0.945-2.188-1.955-2.844-0.94-0.611-2.049-0.841-3.148-0.668l-0.276-1.296c-0.041-0.19-0.228-0.313-0.417-0.27l-11.542 2.455c-0.091 0.019-0.171 0.074-0.222 0.152s-0.068 0.173-0.049 0.264l2.58 12.129c0.174 0.82 0.658 1.522 1.36 1.979 0.515 0.334 1.103 0.507 1.702 0.507 0.219 0 0.44-0.023 0.659-0.070l6.092-1.296c1.692-0.36 2.776-2.029 2.416-3.721l-0.42-1.976 0.005-0.060c1.067-0.292 1.979-0.956 2.586-1.892 0.656-1.010 0.879-2.215 0.629-3.393zM19.379 22.677l-6.092 1.296c-0.635 0.136-1.287 0.015-1.832-0.339s-0.92-0.9-1.056-1.536l-2.507-11.786 10.854-2.308 2.076 9.761c0 0 0 0.001 0 0.001l0.43 2.023c0.279 1.313-0.562 2.609-1.875 2.888zM23.522 15.332c-0.508 0.783-1.269 1.341-2.16 1.591l-1.572-7.389 0.003-0.044c0.91-0.13 1.829 0.070 2.608 0.576 0.853 0.554 1.439 1.406 1.65 2.401s0.023 2.012-0.53 2.864z"></path>
<path fill="#f8cc1d" style="fill: var(--color1, #f8cc1d)" d="M29.719 7.769c-0.123 0-0.242-0.064-0.306-0.178-2.069-3.66-5.964-5.934-10.164-5.934-3.586 0-6.921 1.614-9.15 4.428-0.12 0.152-0.341 0.177-0.493 0.057s-0.178-0.341-0.057-0.494c2.364-2.984 5.899-4.694 9.701-4.694 4.453 0 8.582 2.411 10.775 6.291 0.096 0.169 0.036 0.383-0.133 0.479-0.054 0.031-0.114 0.045-0.172 0.045z"></path>
<path fill="#f8cc1d" style="fill: var(--color1, #f8cc1d)" d="M12.039 31.205c-3.802 0-7.337-1.711-9.701-4.694-0.12-0.152-0.095-0.373 0.057-0.494s0.373-0.095 0.494 0.057c2.229 2.814 5.564 4.428 9.15 4.428 4.2 0 8.094-2.274 10.164-5.934 0.096-0.169 0.31-0.228 0.478-0.133s0.228 0.31 0.133 0.478c-2.194 3.88-6.322 6.291-10.775 6.291z"></path>
<path fill="#f8cc1d" style="fill: var(--color1, #f8cc1d)" d="M31.345 9.35h-0.335v-0.336c0-0.194-0.157-0.351-0.351-0.351s-0.351 0.157-0.351 0.351v0.336h-0.336c-0.194 0-0.351 0.157-0.351 0.351s0.157 0.351 0.351 0.351h0.336v0.336c0 0.194 0.157 0.351 0.351 0.351s0.351-0.157 0.351-0.351v-0.336h0.335c0.194 0 0.351-0.157 0.351-0.351s-0.157-0.351-0.351-0.351z"></path>
<path fill="#f8cc1d" style="fill: var(--color1, #f8cc1d)" d="M9.641 2.294c-0.283 0-0.549-0.11-0.749-0.31s-0.31-0.466-0.31-0.749 0.11-0.549 0.31-0.749c0.413-0.413 1.085-0.413 1.498 0s0.413 1.085 0 1.498c-0.2 0.2-0.466 0.31-0.749 0.31zM9.641 0.878c-0.091 0-0.183 0.035-0.253 0.104-0.067 0.067-0.105 0.157-0.105 0.252s0.037 0.185 0.105 0.252c0.139 0.139 0.366 0.139 0.505 0s0.139-0.366 0-0.505c-0.070-0.069-0.161-0.104-0.253-0.104z"></path>
<path fill="#f8cc1d" style="fill: var(--color1, #f8cc1d)" d="M5.774 22.594c-0.077 0-0.154-0.025-0.218-0.076-2.983-2.364-4.694-5.899-4.694-9.701 0-4.453 2.411-8.582 6.291-10.775 0.169-0.096 0.383-0.036 0.479 0.133s0.036 0.383-0.133 0.479c-3.66 2.069-5.934 5.964-5.934 10.164 0 3.586 1.614 6.921 4.428 9.15 0.152 0.121 0.178 0.342 0.057 0.494-0.069 0.088-0.172 0.133-0.275 0.133z"></path>
<path fill="#f8cc1d" style="fill: var(--color1, #f8cc1d)" d="M26.2 29.805c-0.104 0-0.207-0.046-0.276-0.133-0.12-0.152-0.095-0.373 0.057-0.494 2.814-2.229 4.428-5.564 4.428-9.15 0-4.2-2.274-8.095-5.934-10.164-0.169-0.096-0.228-0.31-0.133-0.479s0.31-0.228 0.478-0.133c3.88 2.194 6.291 6.322 6.291 10.775 0 3.801-1.711 7.337-4.694 9.701-0.064 0.051-0.142 0.076-0.218 0.076z"></path>
<path fill="#f8cc1d" style="fill: var(--color1, #f8cc1d)" d="M23.975 31.788c-0.283 0-0.549-0.11-0.75-0.311-0.413-0.413-0.413-1.085 0-1.498 0.414-0.413 1.085-0.413 1.499-0l0 0c0.413 0.413 0.413 1.086-0 1.498-0.2 0.201-0.466 0.311-0.749 0.311zM23.975 30.372c-0.092 0-0.183 0.035-0.253 0.104-0.139 0.139-0.139 0.366 0 0.505 0.135 0.135 0.37 0.135 0.505 0 0.139-0.139 0.139-0.365 0-0.505v0c-0.070-0.070-0.161-0.105-0.253-0.105z"></path>
<path fill="#f8cc1d" style="fill: var(--color1, #f8cc1d)" d="M1.993 23.89h-0.335v-0.336c0-0.194-0.157-0.351-0.351-0.351s-0.351 0.157-0.351 0.351v0.336h-0.336c-0.194 0-0.351 0.157-0.351 0.351s0.157 0.351 0.351 0.351h0.336v0.335c0 0.194 0.157 0.351 0.351 0.351s0.351-0.157 0.351-0.351v-0.335h0.335c0.194 0 0.351-0.157 0.351-0.351s-0.157-0.351-0.351-0.351z"></path>
</symbol>
<symbol id="icon-pool" viewBox="0 0 32 32">
<path fill="#f8cc1d" d="M22.094 24.039c-1.15 0-2.3-0.53-3.418-1.589-1.838-1.74-3.549-1.741-5.387 0-2.236 2.119-4.6 2.119-6.836 0-1.837-1.74-3.549-1.74-5.387 0-0.212 0.2-0.545 0.191-0.745-0.020s-0.191-0.545 0.020-0.745c2.236-2.118 4.6-2.118 6.836 0 1.837 1.741 3.549 1.741 5.387 0 2.237-2.118 4.601-2.118 6.836 0 1.837 1.741 3.549 1.741 5.387 0 2.237-2.119 4.601-2.118 6.836 0 0.211 0.2 0.22 0.534 0.020 0.745s-0.534 0.22-0.745 0.020c-1.837-1.74-3.549-1.74-5.387 0-1.118 1.059-2.268 1.589-3.418 1.589z"></path>
<path d="M22.094 27.512c-1.15 0-2.3-0.53-3.418-1.589-1.838-1.741-3.549-1.741-5.387 0-2.236 2.119-4.6 2.118-6.836 0-1.837-1.741-3.549-1.741-5.387 0-0.212 0.2-0.545 0.191-0.745-0.020s-0.191-0.545 0.020-0.745c2.236-2.119 4.601-2.118 6.836 0 1.837 1.741 3.549 1.741 5.387 0 2.236-2.119 4.6-2.119 6.836 0 1.838 1.741 3.549 1.741 5.387 0 2.236-2.119 4.601-2.118 6.836 0 0.211 0.2 0.22 0.534 0.020 0.745-0.2 0.212-0.534 0.22-0.745 0.020-1.838-1.74-3.549-1.741-5.387 0-1.118 1.059-2.268 1.589-3.418 1.589z"></path>
<path d="M31.624 18.212c-2.235-2.118-4.6-2.119-6.836 0-0.551 0.522-1.091 0.884-1.626 1.093l-7.024-13.348c-0.484-0.93-1.436-1.509-2.484-1.509h-9.576c-1.322 0-2.398 1.076-2.398 2.398v1.095c0 1.322 1.076 2.398 2.398 2.398h6.446c0.406 0 0.775 0.223 0.963 0.583l1.073 2.053c0 0 0 0.001 0.001 0.001l0.588 1.124-6.594 3.582c-2.049-1.567-4.183-1.395-6.213 0.527-0.211 0.2-0.22 0.534-0.020 0.745s0.533 0.22 0.745 0.020c1.683-1.595 3.26-1.724 4.925-0.399 0.002 0.003 0.002 0.006 0.004 0.009 0.067 0.124 0.177 0.208 0.301 0.249 0.052 0.047 0.105 0.091 0.157 0.14 2.236 2.118 4.6 2.118 6.836 0 1.837-1.741 3.549-1.741 5.387 0 1.118 1.059 2.268 1.589 3.418 1.589 0.3 0 0.6-0.038 0.898-0.11 0.031-0.006 0.060-0.015 0.090-0.026 0.818-0.217 1.632-0.698 2.429-1.453 1.838-1.741 3.549-1.74 5.387 0 0.211 0.2 0.545 0.191 0.745-0.020 0.201-0.211 0.192-0.544-0.020-0.744zM12.564 18.212c-1.76 1.667-3.405 1.733-5.155 0.207l6.226-3.383 0.31 0.594c0.094 0.18 0.277 0.283 0.467 0.283 0.082 0 0.165-0.019 0.243-0.060 0.258-0.135 0.358-0.453 0.223-0.711l-2.459-4.707c-0.37-0.708-1.097-1.149-1.897-1.149h-6.447c-0.741 0-1.344-0.603-1.344-1.344v-1.095c0-0.741 0.603-1.344 1.344-1.344h9.575c0.654 0 1.248 0.36 1.551 0.943l6.878 13.070c-0.883-0.004-1.766-0.438-2.681-1.305-2.236-2.119-4.6-2.119-6.836 0z"></path>
<path fill="#f8cc1d" d="M25.268 15.913c-2.572 0-4.665-2.093-4.665-4.665s2.093-4.665 4.665-4.665 4.665 2.093 4.665 4.665-2.093 4.665-4.665 4.665zM25.268 7.637c-1.991 0-3.611 1.62-3.611 3.611s1.62 3.611 3.611 3.611 3.611-1.62 3.611-3.611-1.62-3.611-3.611-3.611z"></path>
</symbol>
<symbol id="icon-tech" viewBox="0 0 32 32">
<path fill="#f8cc1d" style="fill: var(--color1, #f8cc1d)" d="M20.007 19.282c0 2.224-1.803 4.027-4.027 4.027s-4.027-1.803-4.027-4.027c0-2.224 1.803-4.027 4.027-4.027s4.027 1.803 4.027 4.027z"></path>
<path fill="#FFF" style="fill: var(--color2, #FFF)" d="M25.189 12.149h-18.414c-0.643 0-1.167 0.523-1.167 1.166v10.633c0 0.643 0.523 1.166 1.167 1.166h7.011v2.509h-2.775c-0.19 0-0.345 0.154-0.345 0.345s0.155 0.345 0.345 0.345h9.942c0.191 0 0.345-0.154 0.345-0.345s-0.154-0.345-0.345-0.345h-2.775v-2.509h7.011c0.643 0 1.166-0.523 1.166-1.166v-10.633c0-0.643-0.523-1.166-1.166-1.166zM17.489 27.624h-3.013v-2.509h3.013v2.509zM25.665 23.949c0 0.263-0.214 0.476-0.476 0.476h-18.414c-0.263 0-0.477-0.214-0.477-0.476v-10.634c0-0.263 0.214-0.476 0.477-0.476h18.414c0.263 0 0.476 0.214 0.476 0.476v10.634z"></path>
<path fill="#FFF" style="fill: var(--color2, #FFF)" d="M20.434 16.13l-1.728 0.463 0.388 0.388-3.624 3.625-1.901-1.901-2.283 2.283c-0.135 0.135-0.135 0.353 0 0.488s0.353 0.135 0.488 0l1.796-1.796 1.901 1.901 4.112-4.112 0.388 0.388 0.462-1.727z"></path>
<path fill="#f8cc1d" style="fill: var(--color1, #f8cc1d)" d="M26.878 19.854h-4.466c-0.191 0-0.345-0.154-0.345-0.345s0.154-0.345 0.345-0.345h4.466c0.191 0 0.345 0.154 0.345 0.345s-0.154 0.345-0.345 0.345z"></path>
<path fill="#f8cc1d" style="fill: var(--color1, #f8cc1d)" d="M9.501 19.854h-4.466c-0.19 0-0.345-0.154-0.345-0.345s0.155-0.345 0.345-0.345h4.466c0.19 0 0.345 0.154 0.345 0.345s-0.155 0.345-0.345 0.345z"></path>
<path fill="#f8cc1d" style="fill: var(--color1, #f8cc1d)" d="M20.521 15.29c-0.088 0-0.177-0.034-0.244-0.101-0.135-0.135-0.135-0.353 0-0.488l3.158-3.158c0.135-0.135 0.353-0.135 0.488 0s0.135 0.353 0 0.488l-3.158 3.158c-0.067 0.067-0.156 0.101-0.244 0.101z"></path>
<path fill="#f8cc1d" style="fill: var(--color1, #f8cc1d)" d="M11.392 15.29c-0.088 0-0.177-0.034-0.244-0.101l-3.158-3.158c-0.135-0.135-0.135-0.353 0-0.488s0.353-0.135 0.488 0l3.158 3.158c0.135 0.135 0.135 0.353 0 0.488-0.068 0.067-0.156 0.101-0.244 0.101z"></path>
<path fill="#f8cc1d" style="fill: var(--color1, #f8cc1d)" d="M15.956 13.399c-0.19 0-0.345-0.155-0.345-0.345v-4.466c0-0.19 0.155-0.345 0.345-0.345s0.345 0.155 0.345 0.345v4.466c0 0.191-0.155 0.345-0.345 0.345z"></path>
<path fill="#f8cc1d" style="fill: var(--color1, #f8cc1d)" d="M1.834 19.164v-0.624c0-0.191-0.154-0.345-0.345-0.345s-0.345 0.154-0.345 0.345v0.624h-0.624c-0.191 0-0.345 0.155-0.345 0.345s0.154 0.345 0.345 0.345h0.624v0.624c0 0.191 0.154 0.345 0.345 0.345 0.095 0 0.182-0.039 0.244-0.101s0.101-0.149 0.101-0.244v-0.624h0.624c0.095 0 0.182-0.039 0.244-0.101s0.101-0.149 0.101-0.244c0-0.191-0.154-0.345-0.345-0.345h-0.624z"></path>
<path fill="#f8cc1d" style="fill: var(--color1, #f8cc1d)" d="M16.305 4.331v-0.624c0-0.191-0.154-0.345-0.345-0.345s-0.345 0.154-0.345 0.345v0.624h-0.624c-0.191 0-0.345 0.154-0.345 0.345s0.154 0.345 0.345 0.345h0.624v0.624c0 0.191 0.154 0.345 0.345 0.345 0.095 0 0.182-0.039 0.244-0.101s0.101-0.149 0.101-0.244v-0.624h0.624c0.095 0 0.182-0.039 0.244-0.101s0.101-0.149 0.101-0.244c0-0.191-0.154-0.345-0.345-0.345h-0.624z"></path>
<path fill="#f8cc1d" style="fill: var(--color1, #f8cc1d)" d="M30.82 19.164v-0.624c0-0.191-0.154-0.345-0.345-0.345s-0.345 0.154-0.345 0.345v0.624h-0.624c-0.191 0-0.345 0.154-0.345 0.345s0.154 0.345 0.345 0.345h0.624v0.624c0 0.191 0.154 0.345 0.345 0.345 0.095 0 0.182-0.039 0.244-0.101s0.101-0.149 0.101-0.244v-0.624h0.624c0.095 0 0.182-0.039 0.244-0.101s0.101-0.149 0.101-0.244c0-0.191-0.154-0.345-0.345-0.345h-0.624z"></path>
<path fill="#f8cc1d" style="fill: var(--color1, #f8cc1d)" d="M5.615 10.447c-0.344 0-0.688-0.131-0.95-0.393-0.254-0.254-0.394-0.591-0.394-0.95s0.14-0.697 0.394-0.95c0.508-0.508 1.393-0.508 1.901 0 0.524 0.524 0.524 1.377 0 1.901-0.262 0.262-0.607 0.393-0.95 0.393zM5.615 8.449c-0.175 0-0.339 0.068-0.463 0.192s-0.192 0.288-0.192 0.463c0 0.175 0.068 0.339 0.192 0.463 0.255 0.255 0.67 0.255 0.925 0s0.255-0.67 0-0.925c-0.124-0.124-0.288-0.192-0.463-0.192z"></path>
<path fill="#f8cc1d" style="fill: var(--color1, #f8cc1d)" d="M26.382 10.447c-0.344 0-0.688-0.131-0.95-0.393-0.524-0.524-0.524-1.377 0-1.901 0.507-0.508 1.393-0.508 1.901 0 0.524 0.524 0.524 1.377 0 1.901-0.262 0.262-0.606 0.393-0.95 0.393zM26.382 8.449c-0.175 0-0.339 0.068-0.463 0.192-0.255 0.255-0.255 0.67 0 0.925s0.67 0.255 0.925 0c0.255-0.255 0.255-0.67 0-0.925-0.124-0.124-0.288-0.192-0.463-0.192z"></path>
</symbol>
<symbol id="icon-weight" viewBox="0 0 32 32">
<path fill="#f8cc1d" d="M17.118 20.080h-12.162c-0.194 0-0.351-0.157-0.351-0.351v-2.43c0-0.194 0.157-0.351 0.351-0.351h12.162c0.194 0 0.351 0.157 0.351 0.351v2.43c0 0.194-0.157 0.351-0.351 0.351zM5.307 19.378h11.459v-1.727h-11.459v1.727z"></path>
<path d="M3.741 22.798c-0.864 0-1.566-0.703-1.566-1.567v-5.436c0-0.864 0.703-1.567 1.566-1.567s1.567 0.703 1.567 1.567v5.436c-0 0.864-0.703 1.567-1.567 1.567zM3.741 14.932c-0.476 0-0.864 0.387-0.864 0.864v5.436c0 0.476 0.387 0.864 0.864 0.864s0.864-0.388 0.864-0.864v-5.436c0-0.476-0.387-0.864-0.864-0.864z"></path>
<path  d="M1.526 20.84c-0.745 0-1.351-0.606-1.351-1.351v-1.951c0-0.745 0.606-1.351 1.351-1.351s1.351 0.606 1.351 1.351v1.95c0 0.745-0.606 1.351-1.351 1.351zM1.526 16.891c-0.357 0-0.648 0.291-0.648 0.648v1.95c0 0.357 0.29 0.648 0.648 0.648s0.648-0.29 0.648-0.648v-1.95c0-0.357-0.29-0.648-0.648-0.648z"></path>
<path d="M18.333 22.798c-0.864 0-1.567-0.703-1.567-1.567v-5.436c0-0.864 0.703-1.567 1.567-1.567s1.567 0.703 1.567 1.567v5.436c0 0.864-0.703 1.567-1.567 1.567zM18.333 14.932c-0.476 0-0.864 0.387-0.864 0.864v5.436c0 0.476 0.388 0.864 0.864 0.864s0.864-0.388 0.864-0.864v-5.436c0-0.476-0.387-0.864-0.864-0.864z"></path>
<path d="M20.547 20.84c-0.745 0-1.351-0.606-1.351-1.351v-1.951c0-0.745 0.606-1.351 1.351-1.351s1.351 0.606 1.351 1.351v1.95c0 0.745-0.606 1.351-1.351 1.351zM20.547 16.891c-0.357 0-0.648 0.29-0.648 0.648v1.95c0 0.357 0.29 0.648 0.648 0.648s0.648-0.29 0.648-0.648v-1.95c0-0.357-0.29-0.648-0.648-0.648z"></path>
<path d="M18.98 27.822c-0.059 0-0.118-0.015-0.171-0.045-2.123-1.184-5.303-3.685-7.56-5.947-0.137-0.137-0.137-0.36 0-0.497s0.36-0.137 0.497 0.001c2.157 2.161 5.162 4.54 7.233 5.733 2.74-1.579 7.005-5.182 8.731-7.391 3.603-4.612 4.438-9.969 1.987-12.739-1.138-1.286-2.741-2.028-4.514-2.089-2.101-0.075-4.217 0.83-5.957 2.541-0.137 0.135-0.356 0.135-0.493 0-1.74-1.712-3.854-2.613-5.957-2.541-1.773 0.061-3.376 0.803-4.514 2.089-1.5 1.694-1.804 4.425-0.835 7.491 0.059 0.185-0.044 0.383-0.229 0.441s-0.383-0.044-0.441-0.229c-1.045-3.307-0.688-6.284 0.979-8.168 1.267-1.432 3.049-2.258 5.016-2.326 2.196-0.073 4.396 0.812 6.227 2.508 1.832-1.695 4.030-2.583 6.228-2.508 1.967 0.068 3.749 0.894 5.016 2.326 2.676 3.024 1.852 8.758-1.959 13.637-1.84 2.355-6.268 6.082-9.114 7.669-0.053 0.029-0.112 0.044-0.171 0.044z"></path>
<path fill="#f8cc1d" d="M12.557 14.758c-0.009 0-0.018-0-0.027-0.001-0.149-0.012-0.274-0.116-0.312-0.26l-0.815-3.072h-2.747c-0.194 0-0.351-0.157-0.351-0.351s0.157-0.351 0.351-0.351h3.018c0.159 0 0.299 0.107 0.34 0.261l0.627 2.365 2.418-5.487c0.058-0.132 0.19-0.213 0.336-0.209 0.144 0.006 0.27 0.099 0.318 0.236l0.985 2.834h3.485c0.194 0 0.351 0.157 0.351 0.351s-0.157 0.351-0.351 0.351h-3.736c-0.15 0-0.283-0.095-0.332-0.236l-0.773-2.226-2.462 5.586c-0.056 0.128-0.183 0.21-0.321 0.21z"></path>
</symbol>
<symbol id="icon-room" viewBox="0 0 32 32">
<path fill="#f8cc1d" style="fill: var(--color1, #f8cc1d)" d="M23.186 30.733h-14.493c-0.181 0-0.329-0.147-0.329-0.329v-4.806c0-1.127 0.864-2.090 2.053-2.29l1.956-0.33c0.599-0.101 1.033-0.572 1.033-1.12l0.012-0.515c0.004-0.181 0.156-0.311 0.336-0.321 0.181 0.005 0.325 0.155 0.321 0.337l-0.012 0.507c0 0.863-0.665 1.607-1.581 1.761l-1.956 0.33c-0.872 0.147-1.505 0.837-1.505 1.642v4.478h13.836v-4.477c0-0.804-0.633-1.495-1.505-1.642l-1.956-0.33c-0.916-0.154-1.582-0.898-1.582-1.769l-0.012-0.499c-0.004-0.181 0.14-0.332 0.322-0.336 0.003 0 0.005 0 0.007 0 0.178 0 0.324 0.142 0.329 0.322l0.012 0.507c0 0.556 0.434 1.027 1.033 1.128l1.956 0.33c1.19 0.2 2.053 1.163 2.053 2.29v4.806c-0 0.182-0.147 0.329-0.329 0.329z"></path>
<path fill="#f8cc1d" style="fill: var(--color1, #f8cc1d)" d="M15.942 25.116c-1.138 0-2.277-0.558-3.409-1.673-0.13-0.128-0.131-0.336-0.004-0.465s0.336-0.13 0.465-0.004c1.985 1.956 3.912 1.956 5.891 0.001 0.13-0.128 0.338-0.126 0.465 0.003s0.127 0.337-0.003 0.465c-1.129 1.116-2.266 1.673-3.405 1.673z"></path>
<path fill="#f8cc1d" style="fill: var(--color1, #f8cc1d)" d="M11.661 30.732c-0.175 0-0.32-0.137-0.328-0.314-0.001-0.026-0.005-0.106-0.002-1.787 0-0.187-0.077-0.368-0.217-0.508-0.163-0.163-0.396-0.256-0.639-0.256h-1.782c-0.181 0-0.329-0.147-0.329-0.329s0.147-0.329 0.329-0.329h1.782c0.417 0 0.82 0.164 1.105 0.449 0.264 0.264 0.409 0.61 0.409 0.973-0.002 1.494 0 1.727 0.002 1.758 0.007 0.181-0.134 0.335-0.315 0.342-0.004 0-0.009 0-0.014 0z"></path>
<path fill="#f8cc1d" style="fill: var(--color1, #f8cc1d)" d="M20.203 30.732c-0.005 0-0.009-0-0.014-0-0.181-0.008-0.322-0.161-0.315-0.342 0.003-0.063 0.003-0.654 0.002-1.758-0.001-0.363 0.144-0.708 0.408-0.973 0.285-0.285 0.688-0.449 1.105-0.449h1.782c0.182 0 0.329 0.147 0.329 0.329s-0.147 0.329-0.329 0.329h-1.782c-0.244 0-0.477 0.093-0.64 0.256-0.14 0.14-0.217 0.321-0.216 0.507 0.002 1.2 0.001 1.718-0.002 1.787-0.008 0.177-0.153 0.314-0.328 0.314z"></path>
<path fill="#f8cc1d" style="fill: var(--color1, #f8cc1d)" d="M20.050 15.838c-0.058 0-0.116-0.015-0.169-0.047-0.156-0.093-0.206-0.295-0.113-0.451 0.596-0.993 0.775-1.857 0.534-2.569-0.27-0.796-1.084-1.468-2.42-1.996-0.152-0.060-0.237-0.223-0.199-0.382 0.050-0.212 0.198-0.406 0.459-0.597-1.905-0.506-4.068-0.26-5.113 1.427-0.040 0.065-0.102 0.114-0.175 0.138-0.604 0.204-1.031 0.594-1.234 1.129-0.289 0.762-0.11 1.774 0.506 2.847 0.090 0.157 0.036 0.358-0.122 0.449s-0.358 0.036-0.449-0.122c-0.715-1.247-0.91-2.457-0.55-3.407 0.262-0.691 0.789-1.2 1.527-1.479 1.398-2.121 4.279-2.224 6.542-1.374 0.124 0.047 0.208 0.163 0.213 0.296s-0.071 0.255-0.191 0.31c-0.28 0.129-0.459 0.237-0.573 0.322 1.289 0.582 2.096 1.33 2.4 2.228 0.306 0.903 0.107 1.952-0.593 3.118-0.061 0.104-0.17 0.16-0.282 0.16z"></path>
<path fill="#f8cc1d" style="fill: var(--color1, #f8cc1d)" d="M12.091 15.828c-0.013 0-0.027-0.001-0.040-0.002-0.18-0.022-0.309-0.186-0.287-0.366 0.119-0.98 0.477-1.651 1.064-1.993 0.996-0.581 2.464-0.094 3.631 0.395 1.094 0.419 2.029 0.355 2.872 0.223 0.243-0.045 0.415 0.047 0.515 0.132 0.245 0.208 0.342 0.594 0.325 1.289-0.005 0.178-0.151 0.321-0.329 0.321-0.003 0-0.005 0-0.008 0-0.181-0.004-0.325-0.155-0.321-0.337 0.013-0.53-0.053-0.704-0.083-0.755-0.905 0.139-1.976 0.212-3.217-0.263-0.956-0.4-2.302-0.875-3.057-0.437-0.405 0.236-0.648 0.728-0.742 1.503-0.019 0.167-0.161 0.289-0.325 0.289z"></path>
<path fill="#f8cc1d" style="fill: var(--color1, #f8cc1d)" d="M15.939 22.708c-0.266 0-0.527-0.046-0.777-0.136-1.546-0.559-2.72-1.842-3.139-3.431-0.046-0.176 0.059-0.355 0.234-0.402 0.177-0.046 0.355 0.059 0.402 0.234 0.364 1.381 1.383 2.495 2.727 2.98 0.356 0.129 0.75 0.129 1.106 0 1.344-0.486 2.363-1.599 2.727-2.98 0.047-0.176 0.227-0.28 0.402-0.234s0.28 0.226 0.234 0.402c-0.419 1.59-1.592 2.873-3.139 3.431-0.25 0.090-0.511 0.136-0.777 0.136z"></path>
<path fill="#f8cc1d" style="fill: var(--color1, #f8cc1d)" d="M15.943 20.831c-0.381 0-0.757-0.085-1.125-0.257-0.164-0.076-0.236-0.272-0.159-0.437s0.273-0.235 0.437-0.159c0.563 0.262 1.13 0.26 1.734-0.003 0.167-0.074 0.36 0.004 0.433 0.17s-0.003 0.36-0.17 0.433c-0.387 0.169-0.771 0.253-1.15 0.253z"></path>
<path fill="#f8cc1d" style="fill: var(--color1, #f8cc1d)" d="M20.033 19.386h-8.188c-0.531 0-0.963-0.432-0.963-0.963v-2.289c0-0.531 0.432-0.963 0.963-0.963h8.188c0.531 0 0.963 0.432 0.963 0.963v2.289c0 0.531-0.432 0.963-0.963 0.963zM11.845 15.828c-0.168 0-0.305 0.137-0.305 0.305v2.289c0 0.169 0.137 0.306 0.305 0.306h8.188c0.168 0 0.305-0.137 0.305-0.306v-2.289c0-0.168-0.137-0.305-0.305-0.305h-8.188z"></path>
<path fill="#f8cc1d" style="fill: var(--color1, #f8cc1d)" d="M19.427 16.995c-0.043 0-0.085-0.007-0.125-0.023s-0.075-0.043-0.108-0.072c-0.059-0.062-0.095-0.145-0.095-0.233 0-0.043 0.010-0.085 0.026-0.125s0.039-0.076 0.069-0.105c0.122-0.125 0.346-0.125 0.467 0 0.059 0.059 0.095 0.145 0.095 0.23 0 0.089-0.033 0.171-0.095 0.233s-0.144 0.095-0.233 0.095z"></path>
<path fill="#f8cc1d" style="fill: var(--color1, #f8cc1d)" d="M17.743 16.996h-5.293c-0.181 0-0.329-0.147-0.329-0.329s0.147-0.329 0.329-0.329h5.293c0.182 0 0.329 0.147 0.329 0.329s-0.147 0.329-0.329 0.329z"></path>
<path fill="#f8cc1d" style="fill: var(--color1, #f8cc1d)" d="M28.132 17.568h-2.159c-0.147 0-0.276-0.097-0.316-0.238l-0.602-2.093h-0.27c-0.182 0-0.329-0.147-0.329-0.329s0.147-0.329 0.329-0.329h0.517c0.147 0 0.276 0.097 0.316 0.238l0.602 2.093h1.666l0.307-1.030h-1.459c-0.182 0-0.329-0.147-0.329-0.329s0.147-0.329 0.329-0.329h1.9c0.104 0 0.202 0.049 0.264 0.132s0.081 0.191 0.051 0.29l-0.503 1.687c-0.042 0.139-0.17 0.235-0.315 0.235z"></path>
<path fill="#f8cc1d" style="fill: var(--color1, #f8cc1d)" d="M25.802 18.651c-0.046 0-0.089-0.010-0.129-0.026s-0.075-0.039-0.105-0.072c-0.062-0.059-0.095-0.141-0.095-0.23 0-0.046 0.007-0.085 0.023-0.129 0.017-0.039 0.043-0.075 0.073-0.105 0.122-0.125 0.342-0.122 0.464 0 0.033 0.030 0.056 0.066 0.072 0.105 0.016 0.043 0.026 0.086 0.026 0.129 0 0.085-0.036 0.168-0.099 0.23-0.030 0.033-0.066 0.056-0.105 0.072s-0.082 0.026-0.125 0.026z"></path>
<path fill="#f8cc1d" style="fill: var(--color1, #f8cc1d)" d="M28.316 18.651c-0.043 0-0.085-0.010-0.125-0.026s-0.075-0.039-0.108-0.072c-0.030-0.030-0.056-0.066-0.069-0.105-0.020-0.039-0.026-0.082-0.026-0.125 0-0.089 0.036-0.174 0.095-0.233 0.122-0.122 0.342-0.125 0.467 0 0.059 0.059 0.095 0.144 0.095 0.233 0 0.043-0.010 0.085-0.026 0.125s-0.039 0.075-0.069 0.105c-0.033 0.033-0.069 0.056-0.108 0.072s-0.082 0.026-0.125 0.026z"></path>
<path fill="#f8cc1d" style="fill: var(--color1, #f8cc1d)" d="M26.711 20.449c-2.205 0-3.998-1.794-3.998-3.998s1.793-3.998 3.998-3.998 3.998 1.794 3.998 3.998c0 2.205-1.794 3.998-3.998 3.998zM26.711 13.11c-1.842 0-3.34 1.498-3.34 3.34s1.499 3.341 3.34 3.341c1.842 0 3.341-1.499 3.341-3.341s-1.499-3.34-3.341-3.34z"></path>
<path fill="#f8cc1d" style="fill: var(--color1, #f8cc1d)" d="M22.533 9.142c-2.205 0-3.998-1.794-3.998-3.998s1.794-3.998 3.998-3.998 3.998 1.794 3.998 3.998-1.793 3.998-3.998 3.998zM22.533 1.803c-1.842 0-3.341 1.499-3.341 3.341s1.499 3.341 3.341 3.341c1.842 0 3.34-1.499 3.34-3.341s-1.499-3.341-3.34-3.341z"></path>
<path fill="#f8cc1d" style="fill: var(--color1, #f8cc1d)" d="M22.158 7.499c-0.637 0-1.156-0.458-1.156-1.020s0.518-1.020 1.156-1.020 1.156 0.458 1.156 1.020-0.519 1.020-1.156 1.020zM22.158 6.116c-0.27 0-0.498 0.166-0.498 0.363s0.228 0.363 0.498 0.363 0.498-0.166 0.498-0.363-0.228-0.363-0.498-0.363z"></path>
<path fill="#f8cc1d" style="fill: var(--color1, #f8cc1d)" d="M22.985 6.808c-0.181 0-0.329-0.147-0.329-0.329l-0-3.362c0-0.095 0.041-0.186 0.113-0.248s0.17-0.090 0.261-0.077c0.776 0.11 1.202 0.957 1.257 1.524 0.018 0.18-0.115 0.341-0.295 0.359-0.184 0.020-0.342-0.115-0.359-0.296-0.018-0.188-0.127-0.505-0.32-0.719l0 2.819c0 0.182-0.147 0.329-0.329 0.329z"></path>
<path fill="#f8cc1d" style="fill: var(--color1, #f8cc1d)" d="M8.376 6.99c-0.057 0-0.113-0.014-0.164-0.044-0.102-0.059-0.164-0.167-0.164-0.285v-3.036c0-0.117 0.062-0.226 0.164-0.285s0.227-0.059 0.329 0l2.63 1.518c0.102 0.059 0.164 0.167 0.164 0.285s-0.062 0.226-0.164 0.285l-2.63 1.518c-0.051 0.029-0.108 0.044-0.164 0.044zM8.705 4.195v1.897l1.644-0.948-1.644-0.949z"></path>
<path fill="#f8cc1d" style="fill: var(--color1, #f8cc1d)" d="M9.346 9.142c-2.205 0-3.998-1.794-3.998-3.998s1.794-3.998 3.998-3.998 3.998 1.794 3.998 3.998-1.794 3.998-3.998 3.998zM9.346 1.803c-1.842 0-3.341 1.499-3.341 3.341s1.499 3.341 3.341 3.341 3.341-1.499 3.341-3.341-1.499-3.341-3.341-3.341z"></path>
<path fill="#f8cc1d" style="fill: var(--color1, #f8cc1d)" d="M3.36 18.595c-0.151 0-0.301-0.040-0.435-0.12-0.265-0.158-0.422-0.449-0.411-0.757l-0.080-1.702c0.016-0.459 0.338-0.817 0.766-0.878l1.002-0.142c0.261-0.037 0.518-0.105 0.763-0.201l0.942-0.371c0.402-0.158 0.859-0.006 1.086 0.361l0.798 1.567c0.149 0.239 0.155 0.569 0.003 0.838s-0.436 0.434-0.747 0.43l-1.042-0.012c-0.46 0.003-0.918 0.115-1.317 0.348l-0.9 0.525c-0.132 0.076-0.279 0.114-0.426 0.114zM6.236 15.018c-0.030 0-0.060 0.005-0.089 0.017l-0.941 0.371c-0.293 0.115-0.599 0.196-0.911 0.241l-1.002 0.142c-0.112 0.016-0.197 0.11-0.201 0.224l0.080 1.702c-0.004 0.128 0.063 0.179 0.092 0.197s0.105 0.052 0.192 0.001l0.9-0.525c0.502-0.293 1.073-0.434 1.656-0.437l1.042 0.012c0.103 0.014 0.15-0.066 0.167-0.096s0.049-0.107-0.004-0.193l-0.798-1.567c-0.033-0.052-0.105-0.088-0.182-0.088z"></path>
<path fill="#f8cc1d" style="fill: var(--color1, #f8cc1d)" d="M5.725 16.728c-0.089 0-0.171-0.033-0.233-0.095-0.030-0.033-0.053-0.069-0.069-0.108s-0.026-0.082-0.026-0.125c0-0.085 0.036-0.171 0.095-0.233 0.030-0.030 0.066-0.053 0.109-0.069 0.079-0.033 0.171-0.033 0.25 0 0.039 0.016 0.076 0.039 0.109 0.069 0.059 0.062 0.095 0.148 0.095 0.233 0 0.043-0.010 0.086-0.026 0.125s-0.039 0.075-0.069 0.108c-0.062 0.063-0.145 0.095-0.233 0.095z"></path>
<path fill="#f8cc1d" style="fill: var(--color1, #f8cc1d)" d="M6.070 15.969c-0.089 0-0.171-0.036-0.233-0.095-0.062-0.062-0.095-0.145-0.095-0.233 0-0.085 0.033-0.171 0.095-0.233 0.122-0.122 0.342-0.122 0.467 0 0.059 0.062 0.095 0.148 0.095 0.233 0 0.089-0.036 0.171-0.095 0.233-0.062 0.059-0.148 0.095-0.233 0.095z"></path>
<path fill="#f8cc1d" style="fill: var(--color1, #f8cc1d)" d="M4.084 17.266c-0.146 0-0.279-0.097-0.318-0.245l-0.174-0.657c-0.046-0.176 0.058-0.356 0.234-0.402s0.355 0.059 0.402 0.234l0.174 0.657c0.046 0.176-0.058 0.356-0.234 0.402-0.028 0.007-0.057 0.011-0.084 0.011z"></path>
<path fill="#f8cc1d" style="fill: var(--color1, #f8cc1d)" d="M3.668 17.024c-0.146 0-0.279-0.097-0.318-0.245-0.046-0.176 0.058-0.356 0.234-0.402l0.657-0.174c0.175-0.046 0.355 0.058 0.402 0.234s-0.058 0.356-0.234 0.402l-0.657 0.174c-0.028 0.007-0.056 0.011-0.084 0.011z"></path>
<path fill="#f8cc1d" style="fill: var(--color1, #f8cc1d)" d="M5.168 20.477c-2.205 0-3.998-1.793-3.998-3.998s1.793-3.998 3.998-3.998c2.205 0 3.998 1.794 3.998 3.998s-1.794 3.998-3.998 3.998zM5.168 13.138c-1.842 0-3.34 1.499-3.34 3.341s1.498 3.34 3.34 3.34 3.341-1.499 3.341-3.34c-0-1.842-1.499-3.341-3.341-3.341z"></path>
<path fill="#fff" style="fill: var(--color1, #fff)" d="M26.764 13.101c-0.157 0-0.297-0.113-0.324-0.274-0.278-1.644-0.954-3.223-1.954-4.566-0.108-0.146-0.078-0.351 0.067-0.46s0.351-0.079 0.46 0.067c1.062 1.426 1.78 3.103 2.076 4.849 0.030 0.179-0.090 0.349-0.269 0.379-0.019 0.003-0.037 0.004-0.055 0.004z"></path>
<path fill="#fff" style="fill: var(--color1, #fff)" d="M12.854 4.408c-0.142 0-0.274-0.093-0.315-0.237-0.051-0.174 0.049-0.357 0.224-0.408 2.054-0.6 4.296-0.6 6.351-0.001 0.174 0.051 0.274 0.233 0.224 0.408s-0.233 0.274-0.408 0.224c-1.935-0.565-4.049-0.564-5.983 0-0.031 0.009-0.062 0.013-0.092 0.013z"></path>
<path fill="#fff" style="fill: var(--color1, #fff)" d="M5.11 13.129c-0.018 0-0.036-0.001-0.055-0.005-0.179-0.030-0.3-0.199-0.27-0.378 0.293-1.758 1.013-3.445 2.081-4.878 0.109-0.145 0.314-0.176 0.46-0.067s0.176 0.315 0.067 0.46c-1.006 1.35-1.684 2.939-1.96 4.594-0.026 0.161-0.166 0.275-0.324 0.275z"></path>
</symbol>
<symbol id="icon-sauna" viewBox="0 0 32 32">
<path fill="#f8cc1d" style="fill: var(--color1, #f8cc1d)" d="M20.703 22.021c0-0.413-0.335-0.748-0.748-0.748h-7.946c-0.412 0-0.748 0.335-0.748 0.748v4.328h9.442v-4.328z"></path>
<path fill="#f8cc1d" style="fill: var(--color1, #f8cc1d)" d="M20.004 9.585l-3.828-3.828c-0.008-0.008-0.016-0.015-0.024-0.024l-0.071-0.071c-0.032-0.032-0.074-0.048-0.118-0.048s-0.087 0.016-0.12 0.050l-3.915 3.915c-0.033 0.033-0.050 0.073-0.050 0.12s0.017 0.087 0.050 0.12l1.661 1.693c0.322 0.328 0.516 0.759 0.548 1.217 0.068 0.963 0.879 1.718 1.847 1.718 1 0 1.813-0.782 1.851-1.779 0.024-0.631 0.348-1.18 0.829-1.514l1.341-1.34c0.063-0.063 0.063-0.164-0-0.227z"></path>
<path fill="#fff" style="fill: var(--color2, #fff)" d="M31.437 27.93h-8.451v-5.909c0-1.672-1.36-3.031-3.031-3.031h-7.946c-1.671 0-3.031 1.36-3.031 3.031v5.909h-8.451c-0.194 0-0.351 0.157-0.351 0.351s0.157 0.351 0.351 0.351h30.91c0.194 0 0.351-0.157 0.351-0.351s-0.157-0.351-0.351-0.351zM19.12 25.447h-6.276v-1.78h6.276v1.78zM12.844 27.93v-1.78h6.276v1.78h-6.276zM19.823 27.93v-4.614c0-0.194-0.157-0.351-0.351-0.351h-6.979c-0.194 0-0.351 0.157-0.351 0.351v4.614h-2.461v-5.909c0-1.284 1.045-2.329 2.329-2.329h7.946c1.284 0 2.329 1.045 2.329 2.329v5.909h-2.462z"></path>
<path fill="#fff" style="fill: var(--color2, #fff)" d="M11.868 12.989c0.199 2.096 1.968 3.741 4.115 3.741 2.162 0 3.939-1.669 4.117-3.785l1.517-1.517c0.953-0.953 0.953-2.503 0-3.456l-3.872-3.871c-0-0-0.001-0-0.001-0.001l-0.049-0.049c-0.956-0.956-2.512-0.956-3.469 0l-3.915 3.915c-0.463 0.463-0.718 1.079-0.718 1.734s0.255 1.271 0.718 1.734l1.555 1.555zM15.983 16.027c-1.825 0-3.317-1.432-3.422-3.231l3.402-3.402 3.441 3.442c-0.125 1.78-1.609 3.191-3.42 3.191zM21.122 10.93l-1.315 1.315-3.347-3.347 1.308-1.308c0.463-0.463 0.719-1.079 0.719-1.734 0-0.008-0.001-0.016-0.001-0.024l2.636 2.636c0.678 0.679 0.678 1.784-0 2.463zM10.81 8.461l3.915-3.915c0.341-0.341 0.79-0.512 1.238-0.512s0.896 0.17 1.237 0.511l0.071 0.071c0.331 0.331 0.513 0.77 0.513 1.237s-0.182 0.907-0.513 1.238l-5.152 5.152-1.309-1.309c-0.331-0.331-0.512-0.77-0.512-1.237s0.182-0.907 0.513-1.238z"></path>
<path fill="#fff" style="fill: var(--color2, #fff)" d="M5.52 21.363c0.874 1.584 0.875 3.072 0.005 4.549-0.098 0.167-0.043 0.383 0.124 0.481 0.056 0.033 0.117 0.049 0.178 0.049 0.12 0 0.237-0.062 0.303-0.173 0.993-1.686 0.995-3.451-0.002-5.259-1.079-1.774-1.090-3.227-0.027-4.451 1.343-1.665 1.346-3.434 0.010-5.26-0.115-0.156-0.334-0.191-0.491-0.076s-0.19 0.334-0.076 0.491c1.141 1.558 1.144 2.998 0.018 4.393-1.265 1.455-1.276 3.227-0.043 5.254z"></path>
<path fill="#fff" style="fill: var(--color2, #fff)" d="M25.777 21.363c0.874 1.584 0.875 3.072 0.005 4.55-0.098 0.168-0.043 0.383 0.124 0.481 0.056 0.033 0.117 0.049 0.178 0.049 0.12 0 0.237-0.062 0.303-0.173 0.993-1.686 0.995-3.451-0.002-5.259-1.079-1.774-1.091-3.227-0.027-4.451 1.342-1.665 1.346-3.434 0.010-5.26-0.114-0.156-0.334-0.19-0.491-0.076s-0.19 0.334-0.076 0.491c1.14 1.558 1.143 2.998 0.018 4.393-1.265 1.455-1.276 3.227-0.043 5.254z"></path>
<path fill="#fff" style="fill: var(--color2, #fff)" d="M29.775 26.083c-0.098 0.168-0.043 0.383 0.124 0.481 0.056 0.033 0.117 0.049 0.178 0.049 0.12 0 0.237-0.062 0.303-0.173 0.993-1.686 0.995-3.451-0.002-5.259-1.079-1.774-1.090-3.227-0.035-4.441 0.127-0.146 0.112-0.368-0.035-0.496s-0.368-0.112-0.496 0.035c-1.264 1.455-1.276 3.227-0.043 5.254 0.874 1.584 0.876 3.072 0.005 4.55z"></path>
<path fill="#fff" style="fill: var(--color2, #fff)" d="M1.759 26.083c-0.098 0.168-0.043 0.383 0.124 0.481 0.056 0.033 0.117 0.049 0.178 0.049 0.12 0 0.237-0.062 0.303-0.173 0.993-1.686 0.995-3.451-0.002-5.259-1.079-1.774-1.090-3.227-0.035-4.441 0.127-0.146 0.112-0.368-0.035-0.496s-0.368-0.112-0.496 0.035c-1.264 1.455-1.276 3.227-0.042 5.254 0.874 1.584 0.876 3.073 0.005 4.55z"></path>
</symbol>
</defs>
</svg>
