<svg aria-hidden="true" style="position: absolute; width: 0; height: 0; overflow: hidden;" version="1.1" xmlns="http://www.w3.org/2000/svg" xmlns:xlink="http://www.w3.org/1999/xlink">
<defs>
<symbol id="icon-cafe" viewBox="0 0 32 32">
<path fill="#f8cc1d" style="fill: var(--color1, #f8cc1d)" d="M18.371 15.845c0 1.94-1.573 3.512-3.512 3.512s-3.512-1.573-3.512-3.512c0-1.94 1.573-3.512 3.512-3.512s3.512 1.573 3.512 3.512z"></path>
<path fill="#FFF" style="fill: var(--color2, #FFF)" d="M24.74 12.321c-0.25-1.178-0.945-2.188-1.955-2.844-0.94-0.611-2.049-0.841-3.148-0.668l-0.276-1.296c-0.041-0.19-0.228-0.313-0.417-0.27l-11.542 2.455c-0.091 0.019-0.171 0.074-0.222 0.152s-0.068 0.173-0.049 0.264l2.58 12.129c0.174 0.82 0.658 1.522 1.36 1.979 0.515 0.334 1.103 0.507 1.702 0.507 0.219 0 0.44-0.023 0.659-0.070l6.092-1.296c1.692-0.36 2.776-2.029 2.416-3.721l-0.42-1.976 0.005-0.060c1.067-0.292 1.979-0.956 2.586-1.892 0.656-1.010 0.879-2.215 0.629-3.393zM19.379 22.677l-6.092 1.296c-0.635 0.136-1.287 0.015-1.832-0.339s-0.92-0.9-1.056-1.536l-2.507-11.786 10.854-2.308 2.076 9.761c0 0 0 0.001 0 0.001l0.43 2.023c0.279 1.313-0.562 2.609-1.875 2.888zM23.522 15.332c-0.508 0.783-1.269 1.341-2.16 1.591l-1.572-7.389 0.003-0.044c0.91-0.13 1.829 0.070 2.608 0.576 0.853 0.554 1.439 1.406 1.65 2.401s0.023 2.012-0.53 2.864z"></path>
<path fill="#f8cc1d" style="fill: var(--color1, #f8cc1d)" d="M29.719 7.769c-0.123 0-0.242-0.064-0.306-0.178-2.069-3.66-5.964-5.934-10.164-5.934-3.586 0-6.921 1.614-9.15 4.428-0.12 0.152-0.341 0.177-0.493 0.057s-0.178-0.341-0.057-0.494c2.364-2.984 5.899-4.694 9.701-4.694 4.453 0 8.582 2.411 10.775 6.291 0.096 0.169 0.036 0.383-0.133 0.479-0.054 0.031-0.114 0.045-0.172 0.045z"></path>
<path fill="#f8cc1d" style="fill: var(--color1, #f8cc1d)" d="M12.039 31.205c-3.802 0-7.337-1.711-9.701-4.694-0.12-0.152-0.095-0.373 0.057-0.494s0.373-0.095 0.494 0.057c2.229 2.814 5.564 4.428 9.15 4.428 4.2 0 8.094-2.274 10.164-5.934 0.096-0.169 0.31-0.228 0.478-0.133s0.228 0.31 0.133 0.478c-2.194 3.88-6.322 6.291-10.775 6.291z"></path>
<path fill="#f8cc1d" style="fill: var(--color1, #f8cc1d)" d="M31.345 9.35h-0.335v-0.336c0-0.194-0.157-0.351-0.351-0.351s-0.351 0.157-0.351 0.351v0.336h-0.336c-0.194 0-0.351 0.157-0.351 0.351s0.157 0.351 0.351 0.351h0.336v0.336c0 0.194 0.157 0.351 0.351 0.351s0.351-0.157 0.351-0.351v-0.336h0.335c0.194 0 0.351-0.157 0.351-0.351s-0.157-0.351-0.351-0.351z"></path>
<path fill="#f8cc1d" style="fill: var(--color1, #f8cc1d)" d="M9.641 2.294c-0.283 0-0.549-0.11-0.749-0.31s-0.31-0.466-0.31-0.749 0.11-0.549 0.31-0.749c0.413-0.413 1.085-0.413 1.498 0s0.413 1.085 0 1.498c-0.2 0.2-0.466 0.31-0.749 0.31zM9.641 0.878c-0.091 0-0.183 0.035-0.253 0.104-0.067 0.067-0.105 0.157-0.105 0.252s0.037 0.185 0.105 0.252c0.139 0.139 0.366 0.139 0.505 0s0.139-0.366 0-0.505c-0.070-0.069-0.161-0.104-0.253-0.104z"></path>
<path fill="#f8cc1d" style="fill: var(--color1, #f8cc1d)" d="M5.774 22.594c-0.077 0-0.154-0.025-0.218-0.076-2.983-2.364-4.694-5.899-4.694-9.701 0-4.453 2.411-8.582 6.291-10.775 0.169-0.096 0.383-0.036 0.479 0.133s0.036 0.383-0.133 0.479c-3.66 2.069-5.934 5.964-5.934 10.164 0 3.586 1.614 6.921 4.428 9.15 0.152 0.121 0.178 0.342 0.057 0.494-0.069 0.088-0.172 0.133-0.275 0.133z"></path>
<path fill="#f8cc1d" style="fill: var(--color1, #f8cc1d)" d="M26.2 29.805c-0.104 0-0.207-0.046-0.276-0.133-0.12-0.152-0.095-0.373 0.057-0.494 2.814-2.229 4.428-5.564 4.428-9.15 0-4.2-2.274-8.095-5.934-10.164-0.169-0.096-0.228-0.31-0.133-0.479s0.31-0.228 0.478-0.133c3.88 2.194 6.291 6.322 6.291 10.775 0 3.801-1.711 7.337-4.694 9.701-0.064 0.051-0.142 0.076-0.218 0.076z"></path>
<path fill="#f8cc1d" style="fill: var(--color1, #f8cc1d)" d="M23.975 31.788c-0.283 0-0.549-0.11-0.75-0.311-0.413-0.413-0.413-1.085 0-1.498 0.414-0.413 1.085-0.413 1.499-0l0 0c0.413 0.413 0.413 1.086-0 1.498-0.2 0.201-0.466 0.311-0.749 0.311zM23.975 30.372c-0.092 0-0.183 0.035-0.253 0.104-0.139 0.139-0.139 0.366 0 0.505 0.135 0.135 0.37 0.135 0.505 0 0.139-0.139 0.139-0.365 0-0.505v0c-0.070-0.070-0.161-0.105-0.253-0.105z"></path>
<path fill="#f8cc1d" style="fill: var(--color1, #f8cc1d)" d="M1.993 23.89h-0.335v-0.336c0-0.194-0.157-0.351-0.351-0.351s-0.351 0.157-0.351 0.351v0.336h-0.336c-0.194 0-0.351 0.157-0.351 0.351s0.157 0.351 0.351 0.351h0.336v0.335c0 0.194 0.157 0.351 0.351 0.351s0.351-0.157 0.351-0.351v-0.335h0.335c0.194 0 0.351-0.157 0.351-0.351s-0.157-0.351-0.351-0.351z"></path>
</symbol>
<symbol id="icon-pool" viewBox="0 0 32 32">
<path fill="#f8cc1d" d="M22.094 24.039c-1.15 0-2.3-0.53-3.418-1.589-1.838-1.74-3.549-1.741-5.387 0-2.236 2.119-4.6 2.119-6.836 0-1.837-1.74-3.549-1.74-5.387 0-0.212 0.2-0.545 0.191-0.745-0.020s-0.191-0.545 0.020-0.745c2.236-2.118 4.6-2.118 6.836 0 1.837 1.741 3.549 1.741 5.387 0 2.237-2.118 4.601-2.118 6.836 0 1.837 1.741 3.549 1.741 5.387 0 2.237-2.119 4.601-2.118 6.836 0 0.211 0.2 0.22 0.534 0.020 0.745s-0.534 0.22-0.745 0.020c-1.837-1.74-3.549-1.74-5.387 0-1.118 1.059-2.268 1.589-3.418 1.589z"></path>
<path d="M22.094 27.512c-1.15 0-2.3-0.53-3.418-1.589-1.838-1.741-3.549-1.741-5.387 0-2.236 2.119-4.6 2.118-6.836 0-1.837-1.741-3.549-1.741-5.387 0-0.212 0.2-0.545 0.191-0.745-0.020s-0.191-0.545 0.020-0.745c2.236-2.119 4.601-2.118 6.836 0 1.837 1.741 3.549 1.741 5.387 0 2.236-2.119 4.6-2.119 6.836 0 1.838 1.741 3.549 1.741 5.387 0 2.236-2.119 4.601-2.118 6.836 0 0.211 0.2 0.22 0.534 0.020 0.745-0.2 0.212-0.534 0.22-0.745 0.020-1.838-1.74-3.549-1.741-5.387 0-1.118 1.059-2.268 1.589-3.418 1.589z"></path>
<path d="M31.624 18.212c-2.235-2.118-4.6-2.119-6.836 0-0.551 0.522-1.091 0.884-1.626 1.093l-7.024-13.348c-0.484-0.93-1.436-1.509-2.484-1.509h-9.576c-1.322 0-2.398 1.076-2.398 2.398v1.095c0 1.322 1.076 2.398 2.398 2.398h6.446c0.406 0 0.775 0.223 0.963 0.583l1.073 2.053c0 0 0 0.001 0.001 0.001l0.588 1.124-6.594 3.582c-2.049-1.567-4.183-1.395-6.213 0.527-0.211 0.2-0.22 0.534-0.020 0.745s0.533 0.22 0.745 0.020c1.683-1.595 3.26-1.724 4.925-0.399 0.002 0.003 0.002 0.006 0.004 0.009 0.067 0.124 0.177 0.208 0.301 0.249 0.052 0.047 0.105 0.091 0.157 0.14 2.236 2.118 4.6 2.118 6.836 0 1.837-1.741 3.549-1.741 5.387 0 1.118 1.059 2.268 1.589 3.418 1.589 0.3 0 0.6-0.038 0.898-0.11 0.031-0.006 0.060-0.015 0.090-0.026 0.818-0.217 1.632-0.698 2.429-1.453 1.838-1.741 3.549-1.74 5.387 0 0.211 0.2 0.545 0.191 0.745-0.020 0.201-0.211 0.192-0.544-0.020-0.744zM12.564 18.212c-1.76 1.667-3.405 1.733-5.155 0.207l6.226-3.383 0.31 0.594c0.094 0.18 0.277 0.283 0.467 0.283 0.082 0 0.165-0.019 0.243-0.060 0.258-0.135 0.358-0.453 0.223-0.711l-2.459-4.707c-0.37-0.708-1.097-1.149-1.897-1.149h-6.447c-0.741 0-1.344-0.603-1.344-1.344v-1.095c0-0.741 0.603-1.344 1.344-1.344h9.575c0.654 0 1.248 0.36 1.551 0.943l6.878 13.070c-0.883-0.004-1.766-0.438-2.681-1.305-2.236-2.119-4.6-2.119-6.836 0z"></path>
<path fill="#f8cc1d" d="M25.268 15.913c-2.572 0-4.665-2.093-4.665-4.665s2.093-4.665 4.665-4.665 4.665 2.093 4.665 4.665-2.093 4.665-4.665 4.665zM25.268 7.637c-1.991 0-3.611 1.62-3.611 3.611s1.62 3.611 3.611 3.611 3.611-1.62 3.611-3.611-1.62-3.611-3.611-3.611z"></path>
</symbol>
<symbol id="icon-tech" viewBox="0 0 32 32">
<path fill="#f8cc1d" style="fill: var(--color1, #f8cc1d)" d="M20.007 19.282c0 2.224-1.803 4.027-4.027 4.027s-4.027-1.803-4.027-4.027c0-2.224 1.803-4.027 4.027-4.027s4.027 1.803 4.027 4.027z"></path>
<path fill="#FFF" style="fill: var(--color2, #FFF)" d="M25.189 12.149h-18.414c-0.643 0-1.167 0.523-1.167 1.166v10.633c0 0.643 0.523 1.166 1.167 1.166h7.011v2.509h-2.775c-0.19 0-0.345 0.154-0.345 0.345s0.155 0.345 0.345 0.345h9.942c0.191 0 0.345-0.154 0.345-0.345s-0.154-0.345-0.345-0.345h-2.775v-2.509h7.011c0.643 0 1.166-0.523 1.166-1.166v-10.633c0-0.643-0.523-1.166-1.166-1.166zM17.489 27.624h-3.013v-2.509h3.013v2.509zM25.665 23.949c0 0.263-0.214 0.476-0.476 0.476h-18.414c-0.263 0-0.477-0.214-0.477-0.476v-10.634c0-0.263 0.214-0.476 0.477-0.476h18.414c0.263 0 0.476 0.214 0.476 0.476v10.634z"></path>
<path fill="#FFF" style="fill: var(--color2, #FFF)" d="M20.434 16.13l-1.728 0.463 0.388 0.388-3.624 3.625-1.901-1.901-2.283 2.283c-0.135 0.135-0.135 0.353 0 0.488s0.353 0.135 0.488 0l1.796-1.796 1.901 1.901 4.112-4.112 0.388 0.388 0.462-1.727z"></path>
<path fill="#f8cc1d" style="fill: var(--color1, #f8cc1d)" d="M26.878 19.854h-4.466c-0.191 0-0.345-0.154-0.345-0.345s0.154-0.345 0.345-0.345h4.466c0.191 0 0.345 0.154 0.345 0.345s-0.154 0.345-0.345 0.345z"></path>
<path fill="#f8cc1d" style="fill: var(--color1, #f8cc1d)" d="M9.501 19.854h-4.466c-0.19 0-0.345-0.154-0.345-0.345s0.155-0.345 0.345-0.345h4.466c0.19 0 0.345 0.154 0.345 0.345s-0.155 0.345-0.345 0.345z"></path>
<path fill="#f8cc1d" style="fill: var(--color1, #f8cc1d)" d="M20.521 15.29c-0.088 0-0.177-0.034-0.244-0.101-0.135-0.135-0.135-0.353 0-0.488l3.158-3.158c0.135-0.135 0.353-0.135 0.488 0s0.135 0.353 0 0.488l-3.158 3.158c-0.067 0.067-0.156 0.101-0.244 0.101z"></path>
<path fill="#f8cc1d" style="fill: var(--color1, #f8cc1d)" d="M11.392 15.29c-0.088 0-0.177-0.034-0.244-0.101l-3.158-3.158c-0.135-0.135-0.135-0.353 0-0.488s0.353-0.135 0.488 0l3.158 3.158c0.135 0.135 0.135 0.353 0 0.488-0.068 0.067-0.156 0.101-0.244 0.101z"></path>
<path fill="#f8cc1d" style="fill: var(--color1, #f8cc1d)" d="M15.956 13.399c-0.19 0-0.345-0.155-0.345-0.345v-4.466c0-0.19 0.155-0.345 0.345-0.345s0.345 0.155 0.345 0.345v4.466c0 0.191-0.155 0.345-0.345 0.345z"></path>
<path fill="#f8cc1d" style="fill: var(--color1, #f8cc1d)" d="M1.834 19.164v-0.624c0-0.191-0.154-0.345-0.345-0.345s-0.345 0.154-0.345 0.345v0.624h-0.624c-0.191 0-0.345 0.155-0.345 0.345s0.154 0.345 0.345 0.345h0.624v0.624c0 0.191 0.154 0.345 0.345 0.345 0.095 0 0.182-0.039 0.244-0.101s0.101-0.149 0.101-0.244v-0.624h0.624c0.095 0 0.182-0.039 0.244-0.101s0.101-0.149 0.101-0.244c0-0.191-0.154-0.345-0.345-0.345h-0.624z"></path>
<path fill="#f8cc1d" style="fill: var(--color1, #f8cc1d)" d="M16.305 4.331v-0.624c0-0.191-0.154-0.345-0.345-0.345s-0.345 0.154-0.345 0.345v0.624h-0.624c-0.191 0-0.345 0.154-0.345 0.345s0.154 0.345 0.345 0.345h0.624v0.624c0 0.191 0.154 0.345 0.345 0.345 0.095 0 0.182-0.039 0.244-0.101s0.101-0.149 0.101-0.244v-0.624h0.624c0.095 0 0.182-0.039 0.244-0.101s0.101-0.149 0.101-0.244c0-0.191-0.154-0.345-0.345-0.345h-0.624z"></path>
<path fill="#f8cc1d" style="fill: var(--color1, #f8cc1d)" d="M30.82 19.164v-0.624c0-0.191-0.154-0.345-0.345-0.345s-0.345 0.154-0.345 0.345v0.624h-0.624c-0.191 0-0.345 0.154-0.345 0.345s0.154 0.345 0.345 0.345h0.624v0.624c0 0.191 0.154 0.345 0.345 0.345 0.095 0 0.182-0.039 0.244-0.101s0.101-0.149 0.101-0.244v-0.624h0.624c0.095 0 0.182-0.039 0.244-0.101s0.101-0.149 0.101-0.244c0-0.191-0.154-0.345-0.345-0.345h-0.624z"></path>
<path fill="#f8cc1d" style="fill: var(--color1, #f8cc1d)" d="M5.615 10.447c-0.344 0-0.688-0.131-0.95-0.393-0.254-0.254-0.394-0.591-0.394-0.95s0.14-0.697 0.394-0.95c0.508-0.508 1.393-0.508 1.901 0 0.524 0.524 0.524 1.377 0 1.901-0.262 0.262-0.607 0.393-0.95 0.393zM5.615 8.449c-0.175 0-0.339 0.068-0.463 0.192s-0.192 0.288-0.192 0.463c0 0.175 0.068 0.339 0.192 0.463 0.255 0.255 0.67 0.255 0.925 0s0.255-0.67 0-0.925c-0.124-0.124-0.288-0.192-0.463-0.192z"></path>
<path fill="#f8cc1d" style="fill: var(--color1, #f8cc1d)" d="M26.382 10.447c-0.344 0-0.688-0.131-0.95-0.393-0.524-0.524-0.524-1.377 0-1.901 0.507-0.508 1.393-0.508 1.901 0 0.524 0.524 0.524 1.377 0 1.901-0.262 0.262-0.606 0.393-0.95 0.393zM26.382 8.449c-0.175 0-0.339 0.068-0.463 0.192-0.255 0.255-0.255 0.67 0 0.925s0.67 0.255 0.925 0c0.255-0.255 0.255-0.67 0-0.925-0.124-0.124-0.288-0.192-0.463-0.192z"></path>
</symbol>
<symbol id="icon-weight" viewBox="0 0 32 32">
<path fill="#f8cc1d" d="M17.118 20.080h-12.162c-0.194 0-0.351-0.157-0.351-0.351v-2.43c0-0.194 0.157-0.351 0.351-0.351h12.162c0.194 0 0.351 0.157 0.351 0.351v2.43c0 0.194-0.157 0.351-0.351 0.351zM5.307 19.378h11.459v-1.727h-11.459v1.727z"></path>
<path d="M3.741 22.798c-0.864 0-1.566-0.703-1.566-1.567v-5.436c0-0.864 0.703-1.567 1.566-1.567s1.567 0.703 1.567 1.567v5.436c-0 0.864-0.703 1.567-1.567 1.567zM3.741 14.932c-0.476 0-0.864 0.387-0.864 0.864v5.436c0 0.476 0.387 0.864 0.864 0.864s0.864-0.388 0.864-0.864v-5.436c0-0.476-0.387-0.864-0.864-0.864z"></path>
<path  d="M1.526 20.84c-0.745 0-1.351-0.606-1.351-1.351v-1.951c0-0.745 0.606-1.351 1.351-1.351s1.351 0.606 1.351 1.351v1.95c0 0.745-0.606 1.351-1.351 1.351zM1.526 16.891c-0.357 0-0.648 0.291-0.648 0.648v1.95c0 0.357 0.29 0.648 0.648 0.648s0.648-0.29 0.648-0.648v-1.95c0-0.357-0.29-0.648-0.648-0.648z"></path>
<path d="M18.333 22.798c-0.864 0-1.567-0.703-1.567-1.567v-5.436c0-0.864 0.703-1.567 1.567-1.567s1.567 0.703 1.567 1.567v5.436c0 0.864-0.703 1.567-1.567 1.567zM18.333 14.932c-0.476 0-0.864 0.387-0.864 0.864v5.436c0 0.476 0.388 0.864 0.864 0.864s0.864-0.388 0.864-0.864v-5.436c0-0.476-0.387-0.864-0.864-0.864z"></path>
<path d="M20.547 20.84c-0.745 0-1.351-0.606-1.351-1.351v-1.951c0-0.745 0.606-1.351 1.351-1.351s1.351 0.606 1.351 1.351v1.95c0 0.745-0.606 1.351-1.351 1.351zM20.547 16.891c-0.357 0-0.648 0.29-0.648 0.648v1.95c0 0.357 0.29 0.648 0.648 0.648s0.648-0.29 0.648-0.648v-1.95c0-0.357-0.29-0.648-0.648-0.648z"></path>
<path d="M18.98 27.822c-0.059 0-0.118-0.015-0.171-0.045-2.123-1.184-5.303-3.685-7.56-5.947-0.137-0.137-0.137-0.36 0-0.497s0.36-0.137 0.497 0.001c2.157 2.161 5.162 4.54 7.233 5.733 2.74-1.579 7.005-5.182 8.731-7.391 3.603-4.612 4.438-9.969 1.987-12.739-1.138-1.286-2.741-2.028-4.514-2.089-2.101-0.075-4.217 0.83-5.957 2.541-0.137 0.135-0.356 0.135-0.493 0-1.74-1.712-3.854-2.613-5.957-2.541-1.773 0.061-3.376 0.803-4.514 2.089-1.5 1.694-1.804 4.425-0.835 7.491 0.059 0.185-0.044 0.383-0.229 0.441s-0.383-0.044-0.441-0.229c-1.045-3.307-0.688-6.284 0.979-8.168 1.267-1.432 3.049-2.258 5.016-2.326 2.196-0.073 4.396 0.812 6.227 2.508 1.832-1.695 4.030-2.583 6.228-2.508 1.967 0.068 3.749 0.894 5.016 2.326 2.676 3.024 1.852 8.758-1.959 13.637-1.84 2.355-6.268 6.082-9.114 7.669-0.053 0.029-0.112 0.044-0.171 0.044z"></path>
<path fill="#f8cc1d" d="M12.557 14.758c-0.009 0-0.018-0-0.027-0.001-0.149-0.012-0.274-0.116-0.312-0.26l-0.815-3.072h-2.747c-0.194 0-0.351-0.157-0.351-0.351s0.157-0.351 0.351-0.351h3.018c0.159 0 0.299 0.107 0.34 0.261l0.627 2.365 2.418-5.487c0.058-0.132 0.19-0.213 0.336-0.209 0.144 0.006 0.27 0.099 0.318 0.236l0.985 2.834h3.485c0.194 0 0.351 0.157 0.351 0.351s-0.157 0.351-0.351 0.351h-3.736c-0.15 0-0.283-0.095-0.332-0.236l-0.773-2.226-2.462 5.586c-0.056 0.128-0.183 0.21-0.321 0.21z"></path>
</symbol>
</defs>
</svg>
