<svg 
 xmlns="http://www.w3.org/2000/svg"
 xmlns:xlink="http://www.w3.org/1999/xlink"
 width="16px" height="16px">
<path fill-rule="evenodd"  fill-opacity="0" fill="rgb(0, 0, 0)"
 d="M-0.000,-0.000 L16.000,-0.000 L16.000,16.000 L-0.000,16.000 L-0.000,-0.000 Z"/>
<path fill-rule="evenodd"  fill="#ffed00"
 d="M8.000,14.666 C4.320,14.666 1.333,11.680 1.333,8.000 C1.333,4.320 4.320,1.333 8.000,1.333 C11.680,1.333 14.667,4.320 14.667,8.000 C14.667,11.680 11.680,14.666 8.000,14.666 ZM12.193,4.860 C11.933,4.600 11.513,4.600 11.253,4.860 L6.667,9.446 L4.740,7.527 C4.480,7.266 4.060,7.266 3.800,7.527 C3.540,7.787 3.540,8.206 3.800,8.466 L6.193,10.860 C6.453,11.120 6.880,11.120 7.133,10.860 L12.193,5.800 C12.453,5.540 12.453,5.120 12.193,4.860 Z"/>
</svg>