<svg width="21" height="14" viewBox="0 0 21 14" fill="none" xmlns="http://www.w3.org/2000/svg">
<path d="M3.83268 0.777344L17.166 13.2218M12.166 8.73876C11.7237 9.10824 11.1396 9.3329 10.4993 9.3329C9.11864 9.3329 7.99935 8.28823 7.99935 6.99957C7.99935 6.40196 8.24006 5.85682 8.63593 5.44401M16.8392 9.80556C17.3153 9.41866 17.7412 9.0295 18.1079 8.66938C19.0743 7.72043 19.0743 6.2787 18.1079 5.32975C16.4781 3.72927 13.6789 1.55512 10.4993 1.55512C9.75654 1.55512 9.03449 1.67378 8.34327 1.87606M5.91602 2.95775C4.70055 3.68191 3.66405 4.5704 2.89077 5.32975C1.92443 6.2787 1.92443 7.72043 2.89077 8.66938C4.52059 10.2699 7.31975 12.444 10.4993 12.444C12.0561 12.444 13.5216 11.9228 14.8034 11.203" stroke="#C4C4C4" stroke-width="1.5" stroke-linecap="round"/>
</svg>
