<svg width="32" height="32" viewBox="0 0 32 32" fill="#000" xmlns="http://www.w3.org/2000/svg">
<!-- <g clip-path="url(#clip0_1_253)"> -->
<!-- <path d="M0 17.4209V15.4834C0.0678125 14.9651 0.118671 14.4444 0.205858 13.9302C0.754817 10.705 2.16919 7.91585 4.46594 5.58762C6.78367 3.23759 9.57367 1.76267 12.8303 1.1903C13.3954 1.091 13.9645 1.02884 14.5312 0.952148H16.4687C16.9967 1.02077 17.5279 1.07163 18.0518 1.16124C20.9629 1.65934 23.5414 2.87593 25.7445 4.83926C28.4425 7.23853 30.1281 10.219 30.7627 13.7816C30.8628 14.3467 30.9241 14.9118 31 15.4834V17.4209C30.9779 17.4974 30.9611 17.5754 30.9499 17.6542C30.7683 20.0349 30.0878 22.2655 28.851 24.3039C26.392 28.3492 22.8334 30.8365 18.1713 31.7148C17.6062 31.8206 17.0411 31.8763 16.4712 31.9521H14.5337C14.4577 31.93 14.3803 31.9133 14.302 31.9021C11.16 31.651 8.34255 30.5563 5.88596 28.5874C2.83117 26.1396 0.93888 22.9815 0.239766 19.1227C0.135625 18.5592 0.0783073 17.9884 0 17.4209ZM15.5065 2.23978C7.69187 2.23251 1.29247 8.62545 1.28763 16.4481C1.28278 24.2708 7.67089 30.6564 15.496 30.6686C23.321 30.6807 29.7075 24.2788 29.7124 16.4578C29.7172 8.63676 23.3299 2.24624 15.5065 2.23978Z" fill="#000"/> -->
<path d="M28 0h-24c-2.2 0-4 1.8-4 4v24c0 2.2 1.8 4 4 4h24c2.2 0 4-1.8 4-4v-24c0-2.2-1.8-4-4-4zM14 24.828l-7.414-7.414 2.828-2.828 4.586 4.586 9.586-9.586 2.828 2.828-12.414 12.414z" fill="#000"/>
<!-- </g> -->
<!-- <defs> -->
<!-- <clipPath id="clip0_1_253"> -->
<!-- <rect width="31" height="31" fill="#000" transform="translate(0 0.952148)"/> -->
<!-- </clipPath> -->
<!-- </defs> -->
</svg>
